# xmcd CD database file
#
# Track frame offsets:
#	150
#	12818
#	27003
#	39693
#	52503
#	65655
#	79338
#	92790
#	104168
#	114685
#	128045
#	137638
#	148056
#	158987
#	170761
#	179889
#	192082
#	203236
#	216813
#	227144
#	239391
#	249742
#	259747
#	271687
#
# Disc length: 3774 seconds
#
# Revision: 0
# Processed by: cddbd v1.5.2PL0 Copyright (c) Steve Scherf et al.
# Submitted via: CDex 1.51
#
DISCID=630ebc18
DTITLE=Peterson Oscar - 8 Classic Albums [CD 2] - George Gershwin - Harold Arlen
DYEAR=1959
DGENRE=Jazz
TTITLE0=It Ain't Necesseraly So
TTITLE1=The Man I Love
TTITLE2=Love Walked In
TTITLE3=I Was Going All Right
TTITLE4=A Foggy Day
TTITLE5=Oh, Lady Be Good
TTITLE6=Our Love Is Here To Stay
TTITLE7=They All Loughed
TTITLE8=Let's Call The Whole Thing Off
TTITLE9=Summertime
TTITLE10=Nice Work If You Can Get It
TTITLE11=Shall We Dance?
TTITLE12=As Long As I Live
TTITLE13=Come Rain Or Come Shine
TTITLE14=Ac-Cent-Tchu-Ate The Positive
TTITLE15=Between The Devil And The Deep Blue Sea
TTITLE16=I've Got The World On a String
TTITLE17=That Old Black Magic
TTITLE18=Let's Fall In Love
TTITLE19=Stormy Weather
TTITLE20=Over The Rainbow
TTITLE21=Happiness Is A Thing Called Joe
TTITLE22=The Man That Got Away
TTITLE23=Ill Wind
EXTD=YEAR: 1959
EXTT0=
EXTT1=
EXTT2=
EXTT3=
EXTT4=
EXTT5=
EXTT6=
EXTT7=
EXTT8=
EXTT9=
EXTT10=
EXTT11=
EXTT12=
EXTT13=
EXTT14=
EXTT15=
EXTT16=
EXTT17=
EXTT18=
EXTT19=
EXTT20=
EXTT21=
EXTT22=
EXTT23=
PLAYORDER=
